<?xml version="1.0" encoding="UTF-8" standalone="no"?>
<svg
   width="211.28535"
   height="101.5"
   viewBox="0 0 211.28535 101.5"
   version="1.1"
   id="svg25"
   sodipodi:docname="logo_evenementiels_en_lumieres.svg"
   inkscape:version="1.4.2 (f4327f4, 2025-05-13)"
   inkscape:export-filename="logo_evenementiels_en_lumieres.png"
   inkscape:export-xdpi="96"
   inkscape:export-ydpi="96"
   xmlns:inkscape="http://www.inkscape.org/namespaces/inkscape"
   xmlns:sodipodi="http://sodipodi.sourceforge.net/DTD/sodipodi-0.dtd"
   xmlns="http://www.w3.org/2000/svg"
   xmlns:svg="http://www.w3.org/2000/svg">
  <sodipodi:namedview
     id="namedview25"
     pagecolor="#ffffff"
     bordercolor="#000000"
     borderopacity="0.25"
     inkscape:showpageshadow="2"
     inkscape:pageopacity="0.0"
     inkscape:pagecheckerboard="0"
     inkscape:deskcolor="#d1d1d1"
     showgrid="false"
     inkscape:zoom="4.668"
     inkscape:cx="149.95716"
     inkscape:cy="78.084833"
     inkscape:window-width="2560"
     inkscape:window-height="1369"
     inkscape:window-x="-8"
     inkscape:window-y="-8"
     inkscape:window-maximized="1"
     inkscape:current-layer="svg25">
    <inkscape:page
       x="0"
       y="0"
       width="211.28535"
       height="101.5"
       id="page2"
       margin="0"
       bleed="0" />
  </sodipodi:namedview>
  <!-- Définition des couleurs de la charte -->
  <defs
     id="defs1">
    <rect
       x="36.203941"
       y="35.561268"
       width="53.770351"
       height="61.910885"
       id="rect29" />
    <rect
       x="43.916023"
       y="34.061695"
       width="46.05827"
       height="52.699226"
       id="rect28" />
    <style
       id="style1">
      .vert-foret { fill: #1a4d2e; }
      .vert-sauge { fill: #4f7942; }
      .vert-menthe { fill: #8fbc8f; }
      .or-lumiere { fill: #d4af37; }
      .creme-florale { fill: #f5f5dc; }
    </style>
  </defs>
  <!-- Branche gauche avec feuilles fluides -->
  <path
     d="m 4.999999,50.749999 q 20,-20.000005 40,-10.000005 10,5 5,15.000005 -5,10 -15,5 -15,-8 -30,-10"
     class="vert-sauge"
     opacity="0.7"
     id="path1"
     inkscape:export-filename="logo_sans_texte.svg"
     inkscape:export-xdpi="96"
     inkscape:export-ydpi="96" />
  <path
     d="m 14.999999,45.749994 q 15,-17 25,-10 5,3 3,10 -3,7.000005 -10,5.000005 -10,-2.000005 -18,-5.000005"
     class="vert-menthe"
     id="path2" />
  <path
     d="M -9.6982048e-7,55.749999 Q 9.999999,42.749994 24.999999,48.749994 q 8,4.000005 5,12.000005 -5,8 -13,5 -12,-5 -16.99999996982048,-10"
     class="vert-sauge"
     opacity="0.8"
     id="path3" />
  <!-- Branche droite symétrique -->
  <path
     d="m 206.28535,40.038769 q -20,-20 -40,-10 -10,5 -5,15 5,10 15,5 15,-8 30,-10"
     class="vert-sauge"
     opacity="0.7"
     id="path4" />
  <path
     d="m 195,45.749994 q -15,-17 -25,-10 -5,3 -3,10 3,7.000005 10,5.000005 10,-2.000005 18,-5.000005"
     class="vert-menthe"
     id="path5" />
  <path
     d="m 211.28535,45.038769 q -10,-13 -25,-7 -8,4 -5,12 5,8 13,5 12,-5 17,-10"
     class="vert-sauge"
     opacity="0.8"
     id="path6" />
  <!-- Tiges courbes ornementales -->
  <path
     d="m 44.999999,45.749994 q 19.999997,-25 39.999997,-15"
     stroke="#4f7942"
     stroke-width="2"
     fill="none"
     opacity="0.6"
     id="path7" />
  <path
     d="m 165,45.749994 q -20,-25 -40,-15"
     stroke="#4f7942"
     stroke-width="2"
     fill="none"
     opacity="0.6"
     id="path8" />
  <!-- Centre avec monogramme EL -->
  <g
     transform="translate(105,50.749999)"
     id="g17">
    <!-- Cercle ornemental de base -->
    <circle
       cx="0"
       cy="0"
       r="50"
       fill="none"
       stroke="#8fbc8f"
       stroke-width="1.5"
       opacity="0.3"
       id="circle8" />
    <circle
       cx="0"
       cy="0"
       r="45"
       fill="none"
       stroke="#d4af37"
       stroke-width="1"
       opacity="0.5"
       id="circle9" />
    <!-- Lettre E -->
    <!-- Ornement sur le E -->
    <circle
       cx="0.56898069"
       cy="-33.569839"
       r="1.5"
       class="vert-menthe"
       id="circle10" />
    <circle
       cx="-17.425879"
       cy="29.071123"
       r="1.5"
       class="vert-menthe"
       id="circle11" />
    <!-- Lettre L -->
    <!-- Ornement sur le L -->
    <circle
       cx="19.929735"
       cy="28.856897"
       r="1.5"
       class="vert-menthe"
       id="circle12" />
    <!-- Petite feuille décorative entre E et L -->
    <path
       d="m -39.06084,-0.50128539 q 2,-5.00000001 4,0 -2,1.99999999 -4,0"
       class="vert-sauge"
       opacity="0.6"
       id="path12" />
    <path
       d="m 34.632391,-2.2836327 q 2,4.9999995 4,0 -2,-2 -4,0"
       class="vert-sauge"
       opacity="0.6"
       id="path13" />
    <!-- Volutes décoratives autour -->
    <path
       d="m -38,-32 q 4,-6 10,-2 2,4 -4,6 -4,-2 -6,-4"
       stroke="#8fbc8f"
       stroke-width="1.5"
       fill="none"
       id="path14" />
    <path
       d="m 37.800732,-32.151687 q -3.714234,-6.037779 -9.285584,-2.012593 -1.857117,4.025185 3.714233,6.037778 3.714234,-2.012593 5.571351,-4.025185"
       stroke="#8fbc8f"
       stroke-width="1.44997"
       fill="none"
       id="path14-4" />
    <path
       d="m 38,32 q -4,6 -10,2 -2,-4 4,-6 4,2 6,4"
       stroke="#8fbc8f"
       stroke-width="1.5"
       fill="none"
       id="path15" />
    <path
       d="m -38,32 q 4,6 10,2 2,-4 -4,-6 -4,2 -6,4"
       stroke="#8fbc8f"
       stroke-width="1.5"
       fill="none"
       id="path17" />
  </g>
  <!-- Petites lumières scintillantes dispersées -->
  <circle
     cx="75"
     cy="10.749992"
     r="3"
     class="or-lumiere"
     id="circle17">
    <animate
       attributeName="opacity"
       values="0.3;1;0.3"
       dur="3s"
       repeatCount="indefinite" />
  </circle>
  <circle
     cx="135"
     cy="10.749992"
     r="3"
     class="or-lumiere"
     id="circle18">
    <animate
       attributeName="opacity"
       values="1;0.3;1"
       dur="2.5s"
       repeatCount="indefinite" />
  </circle>
  <circle
     cx="65"
     cy="70.75"
     r="2.5"
     class="creme-florale"
     id="circle19">
    <animate
       attributeName="opacity"
       values="0.5;1;0.5"
       dur="2s"
       repeatCount="indefinite" />
  </circle>
  <circle
     cx="145"
     cy="70.75"
     r="2.5"
     class="creme-florale"
     id="circle20">
    <animate
       attributeName="opacity"
       values="1;0.5;1"
       dur="2.8s"
       repeatCount="indefinite" />
  </circle>
  <circle
     cx="50"
     cy="35.749996"
     r="2"
     class="or-lumiere"
     id="circle21">
    <animate
       attributeName="opacity"
       values="0.4;0.9;0.4"
       dur="3.5s"
       repeatCount="indefinite" />
  </circle>
  <circle
     cx="160"
     cy="35.749996"
     r="2"
     class="or-lumiere"
     id="circle22">
    <animate
       attributeName="opacity"
       values="0.9;0.4;0.9"
       dur="3s"
       repeatCount="indefinite" />
  </circle>
  <!-- Ornements floraux bas -->
  <path
     d="m 54.999999,80.749999 q 19.999997,15 39.999997,5 5,-3 3,3 -5,7 -13,4"
     class="vert-sauge"
     opacity="0.5"
     id="path22" />
  <path
     d="m 155,80.749999 q -20,15 -40,5 -5,-3 -3,3 5,7 13,4"
     class="vert-sauge"
     opacity="0.5"
     id="path23" />
  <!-- Texte du logo -->
  <text
     xml:space="preserve"
     id="text27"
     style="font-style:italic;font-weight:800;font-size:42.6667px;font-family:poppins;-inkscape-font-specification:'poppins Ultra-Bold Italic';text-align:start;writing-mode:lr-tb;direction:ltr;white-space:pre;shape-inside:url(#rect28);fill:#d5b034;fill-opacity:1"
     transform="translate(27.836332,-11.186596)"><tspan
       x="43.916016"
       y="71.395861"
       id="tspan5"><tspan
         style="font-style:normal;font-weight:normal;font-family:'Great Vibes';-inkscape-font-specification:'Great Vibes'"
         id="tspan4">E</tspan></tspan></text>
  <text
     xml:space="preserve"
     id="text28"
     style="font-style:normal;font-variant:normal;font-weight:normal;font-stretch:normal;font-size:42.6667px;font-family:'Great Vibes';-inkscape-font-specification:'Great Vibes';text-align:start;writing-mode:lr-tb;direction:ltr;white-space:pre;shape-inside:url(#rect29);fill:#8fbc8f;fill-opacity:1"
     transform="translate(60.826906,-3.0460652)"><tspan
       x="36.203125"
       y="69.894971"
       id="tspan6">L</tspan></text>
</svg>
